<?xml version="1.0" ?><svg fill="none" height="29" viewBox="0 0 68 29" width="68" xmlns="http://www.w3.org/2000/svg"><path d="M67.0063 14.8492C67.0063 10.0848 64.6985 6.32532 60.2877 6.32532C55.8582 6.32532 53.1782 10.0848 53.1782 14.812C53.1782 20.4139 56.3421 23.2428 60.8832 23.2428C63.0979 23.2428 64.7729 22.7403 66.0385 22.0331V18.3109C64.7729 18.9437 63.3213 19.3345 61.4788 19.3345C59.6735 19.3345 58.0729 18.7017 57.8682 16.5056H66.9691C66.9691 16.2636 67.0063 15.2959 67.0063 14.8492ZM57.8124 13.0812C57.8124 10.9781 59.0966 10.1034 60.2691 10.1034C61.4043 10.1034 62.6141 10.9781 62.6141 13.0812H57.8124ZM46.1624 6.32532C44.3385 6.32532 43.166 7.18143 42.5146 7.77698L42.2727 6.6231H38.1782V28.3237L42.831 27.3373L42.8496 22.0703C43.5196 22.5542 44.506 23.2428 46.1438 23.2428C49.4752 23.2428 52.5088 20.5628 52.5088 14.6631C52.4902 9.26587 49.4193 6.32532 46.1624 6.32532ZM45.0457 19.1484C43.9477 19.1484 43.2963 18.7575 42.8496 18.2737L42.831 11.3689C43.3149 10.8292 43.9849 10.457 45.0457 10.457C46.7393 10.457 47.9118 12.3553 47.9118 14.7934C47.9118 17.2873 46.7579 19.1484 45.0457 19.1484ZM32.1782 5.10837L36.8496 4.10337V0.325317L32.1782 1.31171V5.10837ZM32.1782 6.32532H36.8492V22.6103H32.1782V6.32532ZM26.496 7.89491L26.1982 6.51769H22.1782V22.8024H26.831V11.766C27.9291 10.333 29.7902 10.5935 30.3671 10.7982V6.51769C29.7716 6.29436 27.5941 5.88491 26.496 7.89491ZM17.7379 2.32532L13.1968 3.2931L13.1782 18.2006C13.1782 20.955 15.2441 22.9837 17.9985 22.9837C19.5246 22.9837 20.6413 22.7045 21.2554 22.3695V18.5914C20.6599 18.8334 17.7193 19.6895 17.7193 16.935V10.3281H21.2554V6.36393H17.7193L17.7379 2.32532ZM4.88683 11.3689C4.88683 10.6431 5.48239 10.3639 6.46878 10.3639C7.88322 10.3639 9.66989 10.792 11.0843 11.555V7.18143C9.53961 6.56726 8.0135 6.32532 6.46878 6.32532C2.69072 6.32532 0.178223 8.2981 0.178223 11.5923C0.178223 16.7289 7.25044 15.91 7.25044 18.1248C7.25044 18.9809 6.506 19.26 5.46378 19.26C3.91906 19.26 1.94628 18.6273 0.382945 17.7712V22.2006C2.11378 22.945 3.86322 23.2614 5.46378 23.2614C9.33489 23.2614 11.9963 21.3445 11.9963 18.0131C11.9777 12.467 4.88683 13.4534 4.88683 11.3689Z" fill="black"/></svg>